<mxfile modified="2021-04-24T06:22:13.451Z" host="app.diagrams.net" agent="5.0 (Macintosh; Intel Mac OS X 11_2_3) AppleWebKit/537.36 (KHTML, like Gecko) Chrome/89.0.4389.114 Safari/537.36" etag="jbWlELqkOi5Y1FfTehH0" version="14.6.6" type="github">
  <diagram id="Ht1M8jgEwFfnCIfOTk4-" name="Page-1">
    <mxGraphModel dx="946" dy="557" grid="1" gridSize="10" guides="1" tooltips="1" connect="1" arrows="1" fold="1" page="1" pageScale="1" pageWidth="1169" pageHeight="827" math="0" shadow="0">
      <root>
        <mxCell id="0" />
        <mxCell id="1" parent="0" />
        <mxCell id="UEzPUAAOIrF-is8g5C7q-74" value="AWS Cloud" style="points=[[0,0],[0.25,0],[0.5,0],[0.75,0],[1,0],[1,0.25],[1,0.5],[1,0.75],[1,1],[0.75,1],[0.5,1],[0.25,1],[0,1],[0,0.75],[0,0.5],[0,0.25]];outlineConnect=0;gradientColor=none;html=1;whiteSpace=wrap;fontSize=12;fontStyle=0;shape=mxgraph.aws4.group;grIcon=mxgraph.aws4.group_aws_cloud_alt;strokeColor=#232F3E;fillColor=none;verticalAlign=top;align=left;spacingLeft=30;fontColor=#232F3E;dashed=0;labelBackgroundColor=#ffffff;" parent="1" vertex="1">
          <mxGeometry x="400" y="310" width="520" height="270" as="geometry" />
        </mxCell>
        <mxCell id="FRNYY1aTpsouCTB03O2u-5" style="edgeStyle=orthogonalEdgeStyle;rounded=0;orthogonalLoop=1;jettySize=auto;html=1;entryX=1;entryY=0.8;entryDx=0;entryDy=0;entryPerimeter=0;" edge="1" parent="1" source="UEzPUAAOIrF-is8g5C7q-85" target="FRNYY1aTpsouCTB03O2u-1">
          <mxGeometry relative="1" as="geometry">
            <Array as="points">
              <mxPoint x="590" y="447" />
              <mxPoint x="590" y="447" />
            </Array>
          </mxGeometry>
        </mxCell>
        <mxCell id="UEzPUAAOIrF-is8g5C7q-85" value="AWS Lambda" style="outlineConnect=0;fontColor=#232F3E;gradientColor=#F78E04;gradientDirection=north;fillColor=#D05C17;strokeColor=#ffffff;dashed=0;verticalLabelPosition=bottom;verticalAlign=top;align=center;html=1;fontSize=12;fontStyle=0;aspect=fixed;shape=mxgraph.aws4.resourceIcon;resIcon=mxgraph.aws4.lambda;labelBackgroundColor=#ffffff;spacingTop=6;" parent="1" vertex="1">
          <mxGeometry x="600" y="380" width="78" height="78" as="geometry" />
        </mxCell>
        <mxCell id="FRNYY1aTpsouCTB03O2u-3" style="edgeStyle=orthogonalEdgeStyle;rounded=0;orthogonalLoop=1;jettySize=auto;html=1;exitX=1;exitY=0.21;exitDx=0;exitDy=0;exitPerimeter=0;" edge="1" parent="1" source="FRNYY1aTpsouCTB03O2u-1" target="UEzPUAAOIrF-is8g5C7q-85">
          <mxGeometry relative="1" as="geometry">
            <Array as="points">
              <mxPoint x="580" y="392" />
              <mxPoint x="580" y="392" />
            </Array>
          </mxGeometry>
        </mxCell>
        <mxCell id="FRNYY1aTpsouCTB03O2u-11" style="edgeStyle=orthogonalEdgeStyle;rounded=0;orthogonalLoop=1;jettySize=auto;html=1;exitX=0;exitY=0.8;exitDx=0;exitDy=0;exitPerimeter=0;" edge="1" parent="1" source="FRNYY1aTpsouCTB03O2u-1" target="FRNYY1aTpsouCTB03O2u-8">
          <mxGeometry relative="1" as="geometry">
            <Array as="points">
              <mxPoint x="300" y="447" />
              <mxPoint x="300" y="447" />
            </Array>
          </mxGeometry>
        </mxCell>
        <mxCell id="FRNYY1aTpsouCTB03O2u-1" value="API Gatway" style="outlineConnect=0;dashed=0;verticalLabelPosition=bottom;verticalAlign=top;align=center;html=1;shape=mxgraph.aws3.api_gateway;fillColor=#D9A741;gradientColor=none;" vertex="1" parent="1">
          <mxGeometry x="440" y="372.5" width="76.5" height="93" as="geometry" />
        </mxCell>
        <mxCell id="FRNYY1aTpsouCTB03O2u-7" value="cliant" style="outlineConnect=0;fontColor=#232F3E;gradientColor=none;fillColor=#232F3E;strokeColor=none;dashed=0;verticalLabelPosition=bottom;verticalAlign=top;align=center;html=1;fontSize=12;fontStyle=0;aspect=fixed;pointerEvents=1;shape=mxgraph.aws4.client;" vertex="1" parent="1">
          <mxGeometry x="210" y="388" width="78" height="76" as="geometry" />
        </mxCell>
        <mxCell id="FRNYY1aTpsouCTB03O2u-8" value="" style="outlineConnect=0;fontColor=#232F3E;gradientColor=none;fillColor=#232F3E;strokeColor=none;dashed=0;verticalLabelPosition=bottom;verticalAlign=top;align=center;html=1;fontSize=12;fontStyle=0;aspect=fixed;pointerEvents=1;shape=mxgraph.aws4.mobile_client;" vertex="1" parent="1">
          <mxGeometry x="299.5" y="386" width="40" height="76.1" as="geometry" />
        </mxCell>
        <mxCell id="FRNYY1aTpsouCTB03O2u-12" style="edgeStyle=orthogonalEdgeStyle;rounded=0;orthogonalLoop=1;jettySize=auto;html=1;entryX=0;entryY=0.21;entryDx=0;entryDy=0;entryPerimeter=0;" edge="1" parent="1" source="FRNYY1aTpsouCTB03O2u-8" target="FRNYY1aTpsouCTB03O2u-1">
          <mxGeometry relative="1" as="geometry">
            <mxPoint x="526.5" y="402.03" as="sourcePoint" />
            <mxPoint x="610" y="402" as="targetPoint" />
            <Array as="points">
              <mxPoint x="300" y="392" />
              <mxPoint x="300" y="392" />
            </Array>
          </mxGeometry>
        </mxCell>
        <mxCell id="FRNYY1aTpsouCTB03O2u-13" value="AWS EFS" style="outlineConnect=0;dashed=0;verticalLabelPosition=bottom;verticalAlign=top;align=center;html=1;shape=mxgraph.aws3.efs;fillColor=#E05243;gradientColor=none;" vertex="1" parent="1">
          <mxGeometry x="830" y="321" width="76.5" height="93" as="geometry" />
        </mxCell>
        <mxCell id="FRNYY1aTpsouCTB03O2u-14" value="&lt;font style=&quot;font-size: 9px&quot;&gt;ライブラリの管理&lt;/font&gt;" style="edgeStyle=orthogonalEdgeStyle;rounded=0;orthogonalLoop=1;jettySize=auto;html=1;startArrow=blockThin;startFill=1;" edge="1" parent="1" source="UEzPUAAOIrF-is8g5C7q-85" target="FRNYY1aTpsouCTB03O2u-13">
          <mxGeometry x="0.0789" y="-10" relative="1" as="geometry">
            <mxPoint x="526.5" y="402.0300000000001" as="sourcePoint" />
            <mxPoint x="610" y="402" as="targetPoint" />
            <Array as="points">
              <mxPoint x="790" y="390" />
              <mxPoint x="790" y="390" />
            </Array>
            <mxPoint as="offset" />
          </mxGeometry>
        </mxCell>
        <mxCell id="FRNYY1aTpsouCTB03O2u-15" value="AWS Cloudwatch" style="outlineConnect=0;dashed=0;verticalLabelPosition=bottom;verticalAlign=top;align=center;html=1;shape=mxgraph.aws3.cloudwatch;fillColor=#759C3E;gradientColor=none;" vertex="1" parent="1">
          <mxGeometry x="824" y="458" width="82.5" height="93" as="geometry" />
        </mxCell>
        <mxCell id="FRNYY1aTpsouCTB03O2u-16" style="edgeStyle=orthogonalEdgeStyle;rounded=0;orthogonalLoop=1;jettySize=auto;html=1;entryX=0.1;entryY=0.5;entryDx=0;entryDy=0;entryPerimeter=0;" edge="1" parent="1" source="UEzPUAAOIrF-is8g5C7q-85" target="FRNYY1aTpsouCTB03O2u-15">
          <mxGeometry relative="1" as="geometry">
            <mxPoint x="526.5" y="402.03" as="sourcePoint" />
            <mxPoint x="610" y="402.0000000000001" as="targetPoint" />
            <Array as="points">
              <mxPoint x="720" y="440" />
              <mxPoint x="720" y="505" />
            </Array>
          </mxGeometry>
        </mxCell>
        <mxCell id="FRNYY1aTpsouCTB03O2u-17" value="Github&lt;br&gt;" style="dashed=0;outlineConnect=0;html=1;align=center;labelPosition=center;verticalLabelPosition=bottom;verticalAlign=top;shape=mxgraph.weblogos.github" vertex="1" parent="1">
          <mxGeometry x="610" y="630" width="75" height="75" as="geometry" />
        </mxCell>
        <mxCell id="FRNYY1aTpsouCTB03O2u-18" style="edgeStyle=orthogonalEdgeStyle;rounded=0;orthogonalLoop=1;jettySize=auto;html=1;dashed=1;" edge="1" parent="1" source="FRNYY1aTpsouCTB03O2u-17">
          <mxGeometry relative="1" as="geometry">
            <mxPoint x="610" y="457" as="sourcePoint" />
            <mxPoint x="647" y="457" as="targetPoint" />
            <Array as="points">
              <mxPoint x="647" y="457" />
            </Array>
          </mxGeometry>
        </mxCell>
        <mxCell id="FRNYY1aTpsouCTB03O2u-20" value="&lt;font style=&quot;font-size: 13px&quot;&gt;sls deploy&lt;/font&gt;" style="edgeLabel;html=1;align=center;verticalAlign=middle;resizable=0;points=[];" vertex="1" connectable="0" parent="FRNYY1aTpsouCTB03O2u-18">
          <mxGeometry x="-0.7341" y="1" relative="1" as="geometry">
            <mxPoint x="34" y="3" as="offset" />
          </mxGeometry>
        </mxCell>
      </root>
    </mxGraphModel>
  </diagram>
</mxfile>
